<svg width="120" height="39" viewBox="0 0 120 39" fill="none" xmlns="http://www.w3.org/2000/svg">
<path d="M43.224 17V4.335H48.562C49.4007 4.335 50.1147 4.48233 50.704 4.777C51.3047 5.06033 51.7637 5.46833 52.081 6.001C52.4097 6.52233 52.574 7.157 52.574 7.905C52.574 8.483 52.4153 9.027 52.098 9.537C51.792 10.0357 51.299 10.4493 50.619 10.778V9.707C51.2423 9.945 51.7353 10.2397 52.098 10.591C52.4607 10.9423 52.7157 11.3333 52.863 11.764C53.0103 12.1947 53.084 12.648 53.084 13.124C53.084 14.3367 52.6817 15.2887 51.877 15.98C51.0837 16.66 49.9787 17 48.562 17H43.224ZM45.536 14.96H48.8C49.4007 14.96 49.8767 14.7957 50.228 14.467C50.5907 14.127 50.772 13.6793 50.772 13.124C50.772 12.5687 50.5907 12.121 50.228 11.781C49.8767 11.441 49.4007 11.271 48.8 11.271H45.536V14.96ZM45.536 9.248H48.681C49.157 9.248 49.5367 9.112 49.82 8.84C50.1033 8.55667 50.245 8.194 50.245 7.752C50.245 7.31 50.1033 6.95867 49.82 6.698C49.5367 6.43733 49.157 6.307 48.681 6.307H45.536V9.248ZM59.3129 17.204C58.4062 17.204 57.5789 16.9943 56.8309 16.575C56.0942 16.1557 55.5049 15.5833 55.0629 14.858C54.6322 14.1327 54.4169 13.3053 54.4169 12.376C54.4169 11.4467 54.6322 10.6193 55.0629 9.894C55.5049 9.16867 56.0942 8.59633 56.8309 8.177C57.5676 7.75767 58.3949 7.548 59.3129 7.548C60.2196 7.548 61.0412 7.75767 61.7779 8.177C62.5146 8.59633 63.0982 9.16867 63.5289 9.894C63.9709 10.608 64.1919 11.4353 64.1919 12.376C64.1919 13.3053 63.9709 14.1327 63.5289 14.858C63.0869 15.5833 62.4976 16.1557 61.7609 16.575C61.0242 16.9943 60.2082 17.204 59.3129 17.204ZM59.3129 15.164C59.8116 15.164 60.2479 15.045 60.6219 14.807C61.0072 14.569 61.3076 14.2403 61.5229 13.821C61.7496 13.3903 61.8629 12.9087 61.8629 12.376C61.8629 11.832 61.7496 11.356 61.5229 10.948C61.3076 10.5287 61.0072 10.2 60.6219 9.962C60.2479 9.71267 59.8116 9.588 59.3129 9.588C58.8029 9.588 58.3552 9.71267 57.9699 9.962C57.5846 10.2 57.2786 10.5287 57.0519 10.948C56.8366 11.356 56.7289 11.832 56.7289 12.376C56.7289 12.9087 56.8366 13.3903 57.0519 13.821C57.2786 14.2403 57.5846 14.569 57.9699 14.807C58.3552 15.045 58.8029 15.164 59.3129 15.164ZM70.4028 17.204C69.4961 17.204 68.6688 16.9943 67.9208 16.575C67.1841 16.1557 66.5948 15.5833 66.1528 14.858C65.7221 14.1327 65.5068 13.3053 65.5068 12.376C65.5068 11.4467 65.7221 10.6193 66.1528 9.894C66.5948 9.16867 67.1841 8.59633 67.9208 8.177C68.6574 7.75767 69.4848 7.548 70.4028 7.548C71.3094 7.548 72.1311 7.75767 72.8678 8.177C73.6044 8.59633 74.1881 9.16867 74.6188 9.894C75.0608 10.608 75.2818 11.4353 75.2818 12.376C75.2818 13.3053 75.0608 14.1327 74.6188 14.858C74.1768 15.5833 73.5874 16.1557 72.8508 16.575C72.1141 16.9943 71.2981 17.204 70.4028 17.204ZM70.4028 15.164C70.9014 15.164 71.3378 15.045 71.7118 14.807C72.0971 14.569 72.3974 14.2403 72.6128 13.821C72.8394 13.3903 72.9528 12.9087 72.9528 12.376C72.9528 11.832 72.8394 11.356 72.6128 10.948C72.3974 10.5287 72.0971 10.2 71.7118 9.962C71.3378 9.71267 70.9014 9.588 70.4028 9.588C69.8928 9.588 69.4451 9.71267 69.0598 9.962C68.6744 10.2 68.3684 10.5287 68.1418 10.948C67.9264 11.356 67.8188 11.832 67.8188 12.376C67.8188 12.9087 67.9264 13.3903 68.1418 13.821C68.3684 14.2403 68.6744 14.569 69.0598 14.807C69.4451 15.045 69.8928 15.164 70.4028 15.164ZM76.9706 17V4.131H79.1976V12.563L78.3476 12.308L82.6996 7.752H85.4706L82.0536 11.475L85.5386 17H82.9886L79.9626 12.206L81.2886 11.934L78.5006 14.926L79.1976 13.566V17H76.9706ZM86.7821 17V7.752H89.0091V17H86.7821ZM86.7821 6.715V4.335H89.0091V6.715H86.7821ZM91.0653 17V7.752H93.1563V9.571L92.9863 9.248C93.2017 8.69267 93.553 8.27333 94.0403 7.99C94.539 7.69533 95.117 7.548 95.7743 7.548C96.4543 7.548 97.055 7.69533 97.5763 7.99C98.109 8.28467 98.5227 8.69833 98.8173 9.231C99.112 9.75233 99.2593 10.3587 99.2593 11.05V17H97.0323V11.577C97.0323 11.169 96.953 10.8177 96.7943 10.523C96.6357 10.2283 96.4147 10.0017 96.1313 9.843C95.8593 9.673 95.5363 9.588 95.1623 9.588C94.7997 9.588 94.4767 9.673 94.1933 9.843C93.91 10.0017 93.689 10.2283 93.5303 10.523C93.3717 10.8177 93.2923 11.169 93.2923 11.577V17H91.0653ZM105.63 20.74C104.939 20.74 104.299 20.6267 103.709 20.4C103.12 20.1733 102.61 19.856 102.179 19.448C101.76 19.0513 101.454 18.581 101.261 18.037L103.335 17.255C103.471 17.6857 103.738 18.0313 104.134 18.292C104.542 18.564 105.041 18.7 105.63 18.7C106.084 18.7 106.48 18.615 106.82 18.445C107.172 18.275 107.444 18.0257 107.636 17.697C107.829 17.3797 107.925 16.9943 107.925 16.541V14.433L108.35 14.943C108.033 15.4983 107.608 15.9177 107.075 16.201C106.543 16.4843 105.936 16.626 105.256 16.626C104.395 16.626 103.624 16.4277 102.944 16.031C102.264 15.6343 101.732 15.0903 101.346 14.399C100.961 13.7077 100.768 12.9313 100.768 12.07C100.768 11.1973 100.961 10.421 101.346 9.741C101.732 9.061 102.259 8.52833 102.927 8.143C103.596 7.74633 104.355 7.548 105.205 7.548C105.897 7.548 106.503 7.69533 107.024 7.99C107.557 8.27333 107.999 8.687 108.35 9.231L108.044 9.792V7.752H110.152V16.541C110.152 17.3457 109.954 18.0653 109.557 18.7C109.172 19.3347 108.639 19.8333 107.959 20.196C107.291 20.5587 106.514 20.74 105.63 20.74ZM105.528 14.569C106.004 14.569 106.418 14.467 106.769 14.263C107.132 14.0477 107.415 13.753 107.619 13.379C107.823 13.005 107.925 12.5743 107.925 12.087C107.925 11.611 107.818 11.186 107.602 10.812C107.398 10.4267 107.115 10.1263 106.752 9.911C106.401 9.69567 105.993 9.588 105.528 9.588C105.064 9.588 104.644 9.69567 104.27 9.911C103.896 10.1263 103.602 10.4267 103.386 10.812C103.182 11.186 103.08 11.611 103.08 12.087C103.08 12.563 103.182 12.988 103.386 13.362C103.602 13.736 103.891 14.0307 104.253 14.246C104.627 14.4613 105.052 14.569 105.528 14.569ZM49.225 34.204C48.3183 34.204 47.4797 34.0397 46.709 33.711C45.9383 33.3823 45.264 32.9233 44.686 32.334C44.108 31.7447 43.6547 31.0533 43.326 30.26C43.0087 29.4667 42.85 28.5997 42.85 27.659C42.85 26.7183 43.003 25.8513 43.309 25.058C43.6263 24.2533 44.0683 23.562 44.635 22.984C45.213 22.3947 45.8873 21.9413 46.658 21.624C47.4287 21.2953 48.2673 21.131 49.174 21.131C50.0807 21.131 50.891 21.284 51.605 21.59C52.3303 21.896 52.9423 22.304 53.441 22.814C53.9397 23.3127 54.2967 23.8623 54.512 24.463L52.455 25.449C52.217 24.7917 51.8147 24.259 51.248 23.851C50.6813 23.443 49.99 23.239 49.174 23.239C48.3807 23.239 47.678 23.426 47.066 23.8C46.4653 24.174 45.995 24.6897 45.655 25.347C45.3263 26.0043 45.162 26.775 45.162 27.659C45.162 28.543 45.332 29.3193 45.672 29.988C46.0233 30.6453 46.505 31.161 47.117 31.535C47.729 31.909 48.4317 32.096 49.225 32.096C49.871 32.096 50.466 31.9713 51.01 31.722C51.554 31.4613 51.9903 31.0987 52.319 30.634C52.6477 30.158 52.812 29.597 52.812 28.951V27.982L53.866 28.9H49.174V26.945H55.124V28.22C55.124 29.1947 54.9597 30.056 54.631 30.804C54.3023 31.552 53.8547 32.181 53.288 32.691C52.7327 33.1897 52.1037 33.5693 51.401 33.83C50.6983 34.0793 49.973 34.204 49.225 34.204ZM60.0645 34.204C59.3505 34.204 58.7272 34.0453 58.1945 33.728C57.6732 33.4107 57.2708 32.9687 56.9875 32.402C56.7155 31.8353 56.5795 31.1723 56.5795 30.413V24.752H58.8065V30.226C58.8065 30.6113 58.8802 30.9513 59.0275 31.246C59.1862 31.5293 59.4072 31.756 59.6905 31.926C59.9852 32.0847 60.3138 32.164 60.6765 32.164C61.0392 32.164 61.3622 32.0847 61.6455 31.926C61.9288 31.756 62.1498 31.5237 62.3085 31.229C62.4672 30.9343 62.5465 30.583 62.5465 30.175V24.752H64.7735V34H62.6655V32.181L62.8525 32.504C62.6372 33.0707 62.2802 33.4957 61.7815 33.779C61.2942 34.0623 60.7218 34.204 60.0645 34.204ZM69.6486 34.204C69.0026 34.204 68.4416 34.0963 67.9656 33.881C67.4896 33.6657 67.1213 33.3597 66.8606 32.963C66.6 32.555 66.4696 32.0847 66.4696 31.552C66.4696 31.042 66.583 30.5887 66.8096 30.192C67.0363 29.784 67.3876 29.444 67.8636 29.172C68.3396 28.9 68.9403 28.7073 69.6656 28.594L72.6916 28.101V29.801L70.0906 30.243C69.6486 30.3223 69.32 30.464 69.1046 30.668C68.8893 30.872 68.7816 31.1383 68.7816 31.467C68.7816 31.7843 68.9006 32.0393 69.1386 32.232C69.388 32.4133 69.694 32.504 70.0566 32.504C70.5213 32.504 70.9293 32.4077 71.2806 32.215C71.6433 32.011 71.921 31.7333 72.1136 31.382C72.3176 31.0307 72.4196 30.6453 72.4196 30.226V27.846C72.4196 27.4493 72.261 27.1207 71.9436 26.86C71.6376 26.588 71.2296 26.452 70.7196 26.452C70.2436 26.452 69.8186 26.5823 69.4446 26.843C69.082 27.0923 68.8156 27.4267 68.6456 27.846L66.8266 26.962C67.008 26.4747 67.2913 26.0553 67.6766 25.704C68.0733 25.3413 68.538 25.058 69.0706 24.854C69.6033 24.65 70.1813 24.548 70.8046 24.548C71.564 24.548 72.2326 24.6897 72.8106 24.973C73.3886 25.245 73.8363 25.6303 74.1536 26.129C74.4823 26.6163 74.6466 27.1887 74.6466 27.846V34H72.5386V32.419L73.0146 32.385C72.7766 32.7817 72.4933 33.116 72.1646 33.388C71.836 33.6487 71.462 33.8527 71.0426 34C70.6233 34.136 70.1586 34.204 69.6486 34.204ZM76.705 34V24.752H78.796V26.809L78.626 26.503C78.8413 25.8117 79.1756 25.33 79.629 25.058C80.0936 24.786 80.649 24.65 81.295 24.65H81.839V26.622H81.04C80.4053 26.622 79.8953 26.8203 79.51 27.217C79.1246 27.6023 78.932 28.1463 78.932 28.849V34H76.705ZM85.8684 34.204C85.2224 34.204 84.6614 34.0963 84.1854 33.881C83.7094 33.6657 83.341 33.3597 83.0804 32.963C82.8197 32.555 82.6894 32.0847 82.6894 31.552C82.6894 31.042 82.8027 30.5887 83.0294 30.192C83.256 29.784 83.6074 29.444 84.0834 29.172C84.5594 28.9 85.16 28.7073 85.8854 28.594L88.9114 28.101V29.801L86.3104 30.243C85.8684 30.3223 85.5397 30.464 85.3244 30.668C85.109 30.872 85.0014 31.1383 85.0014 31.467C85.0014 31.7843 85.1204 32.0393 85.3584 32.232C85.6077 32.4133 85.9137 32.504 86.2764 32.504C86.741 32.504 87.149 32.4077 87.5004 32.215C87.863 32.011 88.1407 31.7333 88.3334 31.382C88.5374 31.0307 88.6394 30.6453 88.6394 30.226V27.846C88.6394 27.4493 88.4807 27.1207 88.1634 26.86C87.8574 26.588 87.4494 26.452 86.9394 26.452C86.4634 26.452 86.0384 26.5823 85.6644 26.843C85.3017 27.0923 85.0354 27.4267 84.8654 27.846L83.0464 26.962C83.2277 26.4747 83.511 26.0553 83.8964 25.704C84.293 25.3413 84.7577 25.058 85.2904 24.854C85.823 24.65 86.401 24.548 87.0244 24.548C87.7837 24.548 88.4524 24.6897 89.0304 24.973C89.6084 25.245 90.056 25.6303 90.3734 26.129C90.702 26.6163 90.8664 27.1887 90.8664 27.846V34H88.7584V32.419L89.2344 32.385C88.9964 32.7817 88.713 33.116 88.3844 33.388C88.0557 33.6487 87.6817 33.8527 87.2624 34C86.843 34.136 86.3784 34.204 85.8684 34.204ZM92.9247 34V24.752H95.0157V26.571L94.8457 26.248C95.061 25.6927 95.4124 25.2733 95.8997 24.99C96.3984 24.6953 96.9764 24.548 97.6337 24.548C98.3137 24.548 98.9144 24.6953 99.4357 24.99C99.9684 25.2847 100.382 25.6983 100.677 26.231C100.971 26.7523 101.119 27.3587 101.119 28.05V34H98.8917V28.577C98.8917 28.169 98.8124 27.8177 98.6537 27.523C98.495 27.2283 98.274 27.0017 97.9907 26.843C97.7187 26.673 97.3957 26.588 97.0217 26.588C96.659 26.588 96.336 26.673 96.0527 26.843C95.7694 27.0017 95.5484 27.2283 95.3897 27.523C95.231 27.8177 95.1517 28.169 95.1517 28.577V34H92.9247ZM107.218 34.102C106.175 34.102 105.365 33.8187 104.787 33.252C104.22 32.674 103.937 31.8637 103.937 30.821V26.741H102.339V24.752H102.509C102.962 24.752 103.314 24.633 103.563 24.395C103.812 24.157 103.937 23.8113 103.937 23.358V22.644H106.164V24.752H108.289V26.741H106.164V30.702C106.164 31.008 106.215 31.2687 106.317 31.484C106.43 31.6993 106.6 31.8637 106.827 31.977C107.065 32.0903 107.365 32.147 107.728 32.147C107.807 32.147 107.898 32.1413 108 32.13C108.113 32.1187 108.221 32.1073 108.323 32.096V34C108.164 34.0227 107.983 34.0453 107.779 34.068C107.575 34.0907 107.388 34.102 107.218 34.102ZM114.327 34.204C113.375 34.204 112.542 33.9887 111.828 33.558C111.114 33.1273 110.559 32.5437 110.162 31.807C109.766 31.0703 109.567 30.2543 109.567 29.359C109.567 28.4297 109.766 27.608 110.162 26.894C110.57 26.1687 111.12 25.5963 111.811 25.177C112.514 24.7577 113.296 24.548 114.157 24.548C114.883 24.548 115.517 24.667 116.061 24.905C116.617 25.143 117.087 25.4717 117.472 25.891C117.858 26.3103 118.152 26.792 118.356 27.336C118.56 27.8687 118.662 28.4467 118.662 29.07C118.662 29.2287 118.651 29.393 118.628 29.563C118.617 29.733 118.589 29.8803 118.543 30.005H111.403V28.305H117.285L116.231 29.104C116.333 28.5827 116.305 28.118 116.146 27.71C115.999 27.302 115.75 26.979 115.398 26.741C115.058 26.503 114.645 26.384 114.157 26.384C113.693 26.384 113.279 26.503 112.916 26.741C112.554 26.9677 112.276 27.3077 112.083 27.761C111.902 28.203 111.834 28.7413 111.879 29.376C111.834 29.9427 111.908 30.447 112.1 30.889C112.304 31.3197 112.599 31.654 112.984 31.892C113.381 32.13 113.834 32.249 114.344 32.249C114.854 32.249 115.285 32.1413 115.636 31.926C115.999 31.7107 116.282 31.4217 116.486 31.059L118.288 31.943C118.107 32.385 117.824 32.776 117.438 33.116C117.053 33.456 116.594 33.7223 116.061 33.915C115.54 34.1077 114.962 34.204 114.327 34.204Z" fill="white"/>
<path d="M16.2304 0.248051C17.0022 -0.0407393 17.8456 -0.0783882 18.6401 0.140475L18.9765 0.248051L32.6681 5.38239C33.3623 5.64271 33.9683 6.09495 34.4153 6.68642C34.8624 7.27789 35.1322 7.98423 35.1932 8.72314L35.2069 9.04587V19.5356C35.2068 22.705 34.3511 25.8157 32.7299 28.5391C31.1088 31.2626 28.7824 33.4979 25.9964 35.009L25.4761 35.2809L18.9159 38.561C18.5547 38.7414 18.1601 38.8452 17.7569 38.8661C17.3537 38.8869 16.9506 38.8244 16.5727 38.6823L16.291 38.561L9.7308 35.2809C6.89588 33.8634 4.49627 31.7068 2.78527 29.0387C1.07427 26.3707 0.115362 23.2901 0.00977992 20.1224L0 19.5356V9.04587C1.13739e-05 8.30482 0.210511 7.57902 0.606994 6.95296C1.00348 6.32689 1.56963 5.82633 2.23955 5.50953L2.53881 5.38239L16.2304 0.248051ZM17.6035 3.91153L3.91188 9.04587V19.5356C3.91193 21.9903 4.57192 24.3999 5.82275 26.512C7.07357 28.6241 8.86923 30.3611 11.0217 31.5411L11.4814 31.7817L17.6035 34.8428L23.7255 31.7817C25.9215 30.6839 27.782 29.0159 29.1119 26.9522C30.4419 24.8886 31.1926 22.5053 31.2853 20.0519L31.295 19.5356V9.04587L17.6035 3.91153ZM24.3182 12.8326C24.6702 12.4818 25.1425 12.2781 25.6392 12.2629C26.1359 12.2478 26.6198 12.4222 26.9925 12.7509C27.3652 13.0796 27.5989 13.5378 27.646 14.0325C27.6932 14.5272 27.5502 15.0213 27.2462 15.4144L27.0839 15.5983L16.8465 25.8376C16.4736 26.2105 15.9767 26.4334 15.4503 26.464C14.9239 26.4947 14.4045 26.3309 13.9908 26.0039L13.8031 25.8376L9.10099 21.1355C8.74646 20.7844 8.53957 20.311 8.52265 19.8122C8.50573 19.3135 8.68006 18.8272 9.00997 18.4528C9.33987 18.0784 9.8004 17.8443 10.2973 17.7983C10.7942 17.7523 11.2898 17.898 11.6828 18.2055L11.8667 18.3679L15.3248 21.826L24.3182 12.8326Z" fill="white"/>
</svg>
