<svg width="141" height="36" viewBox="0 0 141 36" fill="none" xmlns="http://www.w3.org/2000/svg">
<path d="M66.224 15V2.335H68.536V15H66.224ZM70.785 15V5.752H72.876V7.571L72.706 7.248C72.9214 6.69267 73.2727 6.27333 73.76 5.99C74.2587 5.69533 74.8367 5.548 75.494 5.548C76.174 5.548 76.7747 5.69533 77.296 5.99C77.8287 6.28467 78.2424 6.69833 78.537 7.231C78.8317 7.75233 78.979 8.35867 78.979 9.05V15H76.752V9.577C76.752 9.169 76.6727 8.81767 76.514 8.523C76.3554 8.22833 76.1344 8.00167 75.851 7.843C75.579 7.673 75.256 7.588 74.882 7.588C74.5194 7.588 74.1964 7.673 73.913 7.843C73.6297 8.00167 73.4087 8.22833 73.25 8.523C73.0914 8.81767 73.012 9.169 73.012 9.577V15H70.785ZM84.3812 15.204C83.3952 15.204 82.5339 14.9717 81.7972 14.507C81.0719 14.031 80.5732 13.3907 80.3012 12.586L81.9672 11.787C82.2052 12.3083 82.5339 12.7163 82.9532 13.011C83.3839 13.3057 83.8599 13.453 84.3812 13.453C84.7892 13.453 85.1122 13.3623 85.3502 13.181C85.5882 12.9997 85.7072 12.7617 85.7072 12.467C85.7072 12.2857 85.6562 12.1383 85.5542 12.025C85.4635 11.9003 85.3332 11.7983 85.1632 11.719C85.0045 11.6283 84.8289 11.5547 84.6362 11.498L83.1232 11.073C82.3412 10.8463 81.7462 10.5007 81.3382 10.036C80.9415 9.57133 80.7432 9.02167 80.7432 8.387C80.7432 7.82033 80.8849 7.32733 81.1682 6.908C81.4629 6.47733 81.8652 6.143 82.3752 5.905C82.8965 5.667 83.4915 5.548 84.1602 5.548C85.0329 5.548 85.8035 5.75767 86.4722 6.177C87.1409 6.59633 87.6169 7.18567 87.9002 7.945L86.2002 8.744C86.0415 8.32467 85.7752 7.99033 85.4012 7.741C85.0272 7.49167 84.6079 7.367 84.1432 7.367C83.7692 7.367 83.4745 7.452 83.2592 7.622C83.0439 7.792 82.9362 8.013 82.9362 8.285C82.9362 8.455 82.9815 8.60233 83.0722 8.727C83.1629 8.85167 83.2875 8.95367 83.4462 9.033C83.6162 9.11233 83.8089 9.186 84.0242 9.254L85.5032 9.696C86.2625 9.92267 86.8462 10.2627 87.2542 10.716C87.6735 11.1693 87.8832 11.7247 87.8832 12.382C87.8832 12.9373 87.7359 13.4303 87.4412 13.861C87.1465 14.2803 86.7385 14.609 86.2172 14.847C85.6959 15.085 85.0839 15.204 84.3812 15.204ZM93.8106 15.102C92.768 15.102 91.9576 14.8187 91.3796 14.252C90.813 13.674 90.5296 12.8637 90.5296 11.821V7.741H88.9316V5.752H89.1016C89.555 5.752 89.9063 5.633 90.1556 5.395C90.405 5.157 90.5296 4.81133 90.5296 4.358V3.644H92.7566V5.752H94.8816V7.741H92.7566V11.702C92.7566 12.008 92.8076 12.2687 92.9096 12.484C93.023 12.6993 93.193 12.8637 93.4196 12.977C93.6576 13.0903 93.958 13.147 94.3206 13.147C94.4 13.147 94.4906 13.1413 94.5926 13.13C94.706 13.1187 94.8136 13.1073 94.9156 13.096V15C94.757 15.0227 94.5756 15.0453 94.3716 15.068C94.1676 15.0907 93.9806 15.102 93.8106 15.102ZM99.3889 15.204C98.7429 15.204 98.1819 15.0963 97.7059 14.881C97.2299 14.6657 96.8615 14.3597 96.6009 13.963C96.3402 13.555 96.2099 13.0847 96.2099 12.552C96.2099 12.042 96.3232 11.5887 96.5499 11.192C96.7765 10.784 97.1279 10.444 97.6039 10.172C98.0799 9.9 98.6805 9.70733 99.4059 9.594L102.432 9.101V10.801L99.8309 11.243C99.3889 11.3223 99.0602 11.464 98.8449 11.668C98.6295 11.872 98.5219 12.1383 98.5219 12.467C98.5219 12.7843 98.6409 13.0393 98.8789 13.232C99.1282 13.4133 99.4342 13.504 99.7969 13.504C100.262 13.504 100.67 13.4077 101.021 13.215C101.384 13.011 101.661 12.7333 101.854 12.382C102.058 12.0307 102.16 11.6453 102.16 11.226V8.846C102.16 8.44933 102.001 8.12067 101.684 7.86C101.378 7.588 100.97 7.452 100.46 7.452C99.9839 7.452 99.5589 7.58233 99.1849 7.843C98.8222 8.09233 98.5559 8.42667 98.3859 8.846L96.5669 7.962C96.7482 7.47467 97.0315 7.05533 97.4169 6.704C97.8135 6.34133 98.2782 6.058 98.8109 5.854C99.3435 5.65 99.9215 5.548 100.545 5.548C101.304 5.548 101.973 5.68967 102.551 5.973C103.129 6.245 103.577 6.63033 103.894 7.129C104.223 7.61633 104.387 8.18867 104.387 8.846V15H102.279V13.419L102.755 13.385C102.517 13.7817 102.234 14.116 101.905 14.388C101.576 14.6487 101.202 14.8527 100.783 15C100.364 15.136 99.8989 15.204 99.3889 15.204ZM106.445 15V5.752H108.536V7.571L108.366 7.248C108.582 6.69267 108.933 6.27333 109.42 5.99C109.919 5.69533 110.497 5.548 111.154 5.548C111.834 5.548 112.435 5.69533 112.956 5.99C113.489 6.28467 113.903 6.69833 114.197 7.231C114.492 7.75233 114.639 8.35867 114.639 9.05V15H112.412V9.577C112.412 9.169 112.333 8.81767 112.174 8.523C112.016 8.22833 111.795 8.00167 111.511 7.843C111.239 7.673 110.916 7.588 110.542 7.588C110.18 7.588 109.857 7.673 109.573 7.843C109.29 8.00167 109.069 8.22833 108.91 8.523C108.752 8.81767 108.672 9.169 108.672 9.577V15H106.445ZM65.187 32L69.556 19.335H72.548L76.917 32H74.401L73.5 29.28H68.604L67.686 32H65.187ZM69.267 27.24H72.837L70.729 20.933H71.375L69.267 27.24ZM78.1395 35.4V22.752H80.2305V24.588L80.0265 24.129C80.3439 23.6303 80.7745 23.245 81.3185 22.973C81.8625 22.6897 82.4915 22.548 83.2055 22.548C84.0782 22.548 84.8659 22.7633 85.5685 23.194C86.2712 23.6247 86.8265 24.2027 87.2345 24.928C87.6539 25.6533 87.8635 26.4693 87.8635 27.376C87.8635 28.2713 87.6595 29.0873 87.2515 29.824C86.8435 30.5607 86.2882 31.1443 85.5855 31.575C84.8829 31.9943 84.0839 32.204 83.1885 32.204C82.5199 32.204 81.9022 32.0737 81.3355 31.813C80.7802 31.541 80.3382 31.1557 80.0095 30.657L80.3665 30.215V35.4H78.1395ZM82.9335 30.164C83.4435 30.164 83.8969 30.045 84.2935 29.807C84.6902 29.569 84.9962 29.2403 85.2115 28.821C85.4382 28.4017 85.5515 27.92 85.5515 27.376C85.5515 26.832 85.4382 26.356 85.2115 25.948C84.9962 25.5287 84.6902 25.2 84.2935 24.962C83.8969 24.7127 83.4435 24.588 82.9335 24.588C82.4462 24.588 82.0042 24.707 81.6075 24.945C81.2222 25.183 80.9162 25.5173 80.6895 25.948C80.4742 26.3673 80.3665 26.8433 80.3665 27.376C80.3665 27.92 80.4742 28.4017 80.6895 28.821C80.9162 29.2403 81.2222 29.569 81.6075 29.807C82.0042 30.045 82.4462 30.164 82.9335 30.164ZM89.5614 35.4V22.752H91.6524V24.588L91.4484 24.129C91.7657 23.6303 92.1964 23.245 92.7404 22.973C93.2844 22.6897 93.9134 22.548 94.6274 22.548C95.5001 22.548 96.2877 22.7633 96.9904 23.194C97.6931 23.6247 98.2484 24.2027 98.6564 24.928C99.0757 25.6533 99.2854 26.4693 99.2854 27.376C99.2854 28.2713 99.0814 29.0873 98.6734 29.824C98.2654 30.5607 97.7101 31.1443 97.0074 31.575C96.3047 31.9943 95.5057 32.204 94.6104 32.204C93.9417 32.204 93.3241 32.0737 92.7574 31.813C92.2021 31.541 91.7601 31.1557 91.4314 30.657L91.7884 30.215V35.4H89.5614ZM94.3554 30.164C94.8654 30.164 95.3187 30.045 95.7154 29.807C96.1121 29.569 96.4181 29.2403 96.6334 28.821C96.8601 28.4017 96.9734 27.92 96.9734 27.376C96.9734 26.832 96.8601 26.356 96.6334 25.948C96.4181 25.5287 96.1121 25.2 95.7154 24.962C95.3187 24.7127 94.8654 24.588 94.3554 24.588C93.8681 24.588 93.4261 24.707 93.0294 24.945C92.6441 25.183 92.3381 25.5173 92.1114 25.948C91.8961 26.3673 91.7884 26.8433 91.7884 27.376C91.7884 27.92 91.8961 28.4017 92.1114 28.821C92.3381 29.2403 92.6441 29.569 93.0294 29.807C93.4261 30.045 93.8681 30.164 94.3554 30.164ZM100.983 32V22.752H103.074V24.809L102.904 24.503C103.12 23.8117 103.454 23.33 103.907 23.058C104.372 22.786 104.927 22.65 105.573 22.65H106.117V24.622H105.318C104.684 24.622 104.174 24.8203 103.788 25.217C103.403 25.6023 103.21 26.1463 103.21 26.849V32H100.983ZM111.864 32.204C110.957 32.204 110.13 31.9943 109.382 31.575C108.645 31.1557 108.056 30.5833 107.614 29.858C107.183 29.1327 106.968 28.3053 106.968 27.376C106.968 26.4467 107.183 25.6193 107.614 24.894C108.056 24.1687 108.645 23.5963 109.382 23.177C110.118 22.7577 110.946 22.548 111.864 22.548C112.77 22.548 113.592 22.7577 114.329 23.177C115.065 23.5963 115.649 24.1687 116.08 24.894C116.522 25.608 116.743 26.4353 116.743 27.376C116.743 28.3053 116.522 29.1327 116.08 29.858C115.638 30.5833 115.048 31.1557 114.312 31.575C113.575 31.9943 112.759 32.204 111.864 32.204ZM111.864 30.164C112.362 30.164 112.799 30.045 113.173 29.807C113.558 29.569 113.858 29.2403 114.074 28.821C114.3 28.3903 114.414 27.9087 114.414 27.376C114.414 26.832 114.3 26.356 114.074 25.948C113.858 25.5287 113.558 25.2 113.173 24.962C112.799 24.7127 112.362 24.588 111.864 24.588C111.354 24.588 110.906 24.7127 110.521 24.962C110.135 25.2 109.829 25.5287 109.603 25.948C109.387 26.356 109.28 26.832 109.28 27.376C109.28 27.9087 109.387 28.3903 109.603 28.821C109.829 29.2403 110.135 29.569 110.521 29.807C110.906 30.045 111.354 30.164 111.864 30.164ZM121.054 32L117.416 22.752H119.847L122.482 30.028H121.581L124.233 22.752H126.664L123.026 32H121.054ZM130.367 32.204C129.721 32.204 129.16 32.0963 128.684 31.881C128.208 31.6657 127.84 31.3597 127.579 30.963C127.319 30.555 127.188 30.0847 127.188 29.552C127.188 29.042 127.302 28.5887 127.528 28.192C127.755 27.784 128.106 27.444 128.582 27.172C129.058 26.9 129.659 26.7073 130.384 26.594L133.41 26.101V27.801L130.809 28.243C130.367 28.3223 130.039 28.464 129.823 28.668C129.608 28.872 129.5 29.1383 129.5 29.467C129.5 29.7843 129.619 30.0393 129.857 30.232C130.107 30.4133 130.413 30.504 130.775 30.504C131.24 30.504 131.648 30.4077 131.999 30.215C132.362 30.011 132.64 29.7333 132.832 29.382C133.036 29.0307 133.138 28.6453 133.138 28.226V25.846C133.138 25.4493 132.98 25.1207 132.662 24.86C132.356 24.588 131.948 24.452 131.438 24.452C130.962 24.452 130.537 24.5823 130.163 24.843C129.801 25.0923 129.534 25.4267 129.364 25.846L127.545 24.962C127.727 24.4747 128.01 24.0553 128.395 23.704C128.792 23.3413 129.257 23.058 129.789 22.854C130.322 22.65 130.9 22.548 131.523 22.548C132.283 22.548 132.951 22.6897 133.529 22.973C134.107 23.245 134.555 23.6303 134.872 24.129C135.201 24.6163 135.365 25.1887 135.365 25.846V32H133.257V30.419L133.733 30.385C133.495 30.7817 133.212 31.116 132.883 31.388C132.555 31.6487 132.181 31.8527 131.761 32C131.342 32.136 130.877 32.204 130.367 32.204ZM137.424 32V19.131H139.651V32H137.424Z" fill="white"/>
<path d="M44.2267 11.0233C42.7742 9.57083 40.8042 8.75482 38.75 8.75482C36.6959 8.75482 34.7258 9.57083 33.2733 11.0233C31.8208 12.4758 31.0048 14.4459 31.0048 16.5C31.0048 18.5541 31.8208 20.5242 33.2733 21.9767C33.9925 22.6959 34.8464 23.2664 35.7861 23.6556C36.7257 24.0448 37.7329 24.2452 38.75 24.2452C39.7671 24.2452 40.7743 24.0448 41.714 23.6556C42.6536 23.2664 43.5075 22.6959 44.2267 21.9767C44.9459 21.2575 45.5164 20.4036 45.9056 19.464C46.2948 18.5243 46.4952 17.5171 46.4952 16.5C46.4952 15.4829 46.2948 14.4757 45.9056 13.536C45.5164 12.5964 44.9459 11.7425 44.2267 11.0233ZM18.0833 1V32H59.4167V1H18.0833ZM54.25 21.6667C52.8808 21.6667 51.5633 22.2092 50.6075 23.1908C49.6258 24.1467 49.0833 25.4642 49.0833 26.8333H28.4167C28.4167 25.4642 27.8742 24.1467 26.8925 23.1908C25.9367 22.2092 24.6192 21.6667 23.25 21.6667V11.3333C24.6192 11.3333 25.9367 10.7908 26.8925 9.80917C27.8742 8.85333 28.4167 7.53583 28.4167 6.16667H49.0833C49.0833 7.53583 49.6258 8.85333 50.6075 9.80917C51.5633 10.7908 52.8808 11.3333 54.25 11.3333V21.6667ZM12.9167 6.16667H7.75C6.32917 6.16667 5.16667 5.00417 5.16667 3.58333C5.16667 2.1625 6.32917 1 7.75 1H12.9167V6.16667ZM12.9167 19.0833H5.16667C3.74583 19.0833 2.58333 17.9208 2.58333 16.5C2.58333 15.0792 3.74583 13.9167 5.16667 13.9167H12.9167V19.0833ZM12.9167 32H2.58333C1.15733 32 0 30.8375 0 29.4167C0 27.9958 1.15733 26.8333 2.58333 26.8333H12.9167V32Z" fill="white"/>
</svg>
