<svg width="100" height="48" viewBox="0 0 100 48" fill="none" xmlns="http://www.w3.org/2000/svg">
<path d="M50.468 27V16.375H47.187V14.335H56.027V16.375H52.797V27H50.468ZM59.0432 27.204C58.3972 27.204 57.8362 27.0963 57.3602 26.881C56.8842 26.6657 56.5158 26.3597 56.2552 25.963C55.9945 25.555 55.8642 25.0847 55.8642 24.552C55.8642 24.042 55.9775 23.5887 56.2042 23.192C56.4308 22.784 56.7822 22.444 57.2582 22.172C57.7342 21.9 58.3348 21.7073 59.0602 21.594L62.0862 21.101V22.801L59.4852 23.243C59.0432 23.3223 58.7145 23.464 58.4992 23.668C58.2838 23.872 58.1762 24.1383 58.1762 24.467C58.1762 24.7843 58.2952 25.0393 58.5332 25.232C58.7825 25.4133 59.0885 25.504 59.4512 25.504C59.9158 25.504 60.3238 25.4077 60.6752 25.215C61.0378 25.011 61.3155 24.7333 61.5082 24.382C61.7122 24.0307 61.8142 23.6453 61.8142 23.226V20.846C61.8142 20.4493 61.6555 20.1207 61.3382 19.86C61.0322 19.588 60.6242 19.452 60.1142 19.452C59.6382 19.452 59.2132 19.5823 58.8392 19.843C58.4765 20.0923 58.2102 20.4267 58.0402 20.846L56.2212 19.962C56.4025 19.4747 56.6858 19.0553 57.0712 18.704C57.4678 18.3413 57.9325 18.058 58.4652 17.854C58.9978 17.65 59.5758 17.548 60.1992 17.548C60.9585 17.548 61.6272 17.6897 62.2052 17.973C62.7832 18.245 63.2308 18.6303 63.5482 19.129C63.8768 19.6163 64.0412 20.1887 64.0412 20.846V27H61.9332V25.419L62.4092 25.385C62.1712 25.7817 61.8878 26.116 61.5592 26.388C61.2305 26.6487 60.8565 26.8527 60.4372 27C60.0178 27.136 59.5532 27.204 59.0432 27.204ZM66.0995 27V17.752H68.1905V19.571L68.0205 19.248C68.2358 18.6927 68.5872 18.2733 69.0745 17.99C69.5732 17.6953 70.1512 17.548 70.8085 17.548C71.4885 17.548 72.0892 17.6953 72.6105 17.99C73.1432 18.2847 73.5568 18.6983 73.8515 19.231C74.1462 19.7523 74.2935 20.3587 74.2935 21.05V27H72.0665V21.577C72.0665 21.169 71.9872 20.8177 71.8285 20.523C71.6698 20.2283 71.4488 20.0017 71.1655 19.843C70.8935 19.673 70.5705 19.588 70.1965 19.588C69.8338 19.588 69.5108 19.673 69.2275 19.843C68.9442 20.0017 68.7232 20.2283 68.5645 20.523C68.4058 20.8177 68.3265 21.169 68.3265 21.577V27H66.0995ZM76.1766 30.4V17.752H78.2676V19.588L78.0636 19.129C78.381 18.6303 78.8116 18.245 79.3556 17.973C79.8996 17.6897 80.5286 17.548 81.2426 17.548C82.1153 17.548 82.903 17.7633 83.6056 18.194C84.3083 18.6247 84.8636 19.2027 85.2716 19.928C85.691 20.6533 85.9006 21.4693 85.9006 22.376C85.9006 23.2713 85.6966 24.0873 85.2886 24.824C84.8806 25.5607 84.3253 26.1443 83.6226 26.575C82.92 26.9943 82.121 27.204 81.2256 27.204C80.557 27.204 79.9393 27.0737 79.3726 26.813C78.8173 26.541 78.3753 26.1557 78.0466 25.657L78.4036 25.215V30.4H76.1766ZM80.9706 25.164C81.4806 25.164 81.934 25.045 82.3306 24.807C82.7273 24.569 83.0333 24.2403 83.2486 23.821C83.4753 23.4017 83.5886 22.92 83.5886 22.376C83.5886 21.832 83.4753 21.356 83.2486 20.948C83.0333 20.5287 82.7273 20.2 82.3306 19.962C81.934 19.7127 81.4806 19.588 80.9706 19.588C80.4833 19.588 80.0413 19.707 79.6446 19.945C79.2593 20.183 78.9533 20.5173 78.7266 20.948C78.5113 21.3673 78.4036 21.8433 78.4036 22.376C78.4036 22.92 78.5113 23.4017 78.7266 23.821C78.9533 24.2403 79.2593 24.569 79.6446 24.807C80.0413 25.045 80.4833 25.164 80.9706 25.164ZM90.4035 27.204C89.7575 27.204 89.1965 27.0963 88.7205 26.881C88.2445 26.6657 87.8762 26.3597 87.6155 25.963C87.3549 25.555 87.2245 25.0847 87.2245 24.552C87.2245 24.042 87.3379 23.5887 87.5645 23.192C87.7912 22.784 88.1425 22.444 88.6185 22.172C89.0945 21.9 89.6952 21.7073 90.4205 21.594L93.4465 21.101V22.801L90.8455 23.243C90.4035 23.3223 90.0749 23.464 89.8595 23.668C89.6442 23.872 89.5365 24.1383 89.5365 24.467C89.5365 24.7843 89.6555 25.0393 89.8935 25.232C90.1429 25.4133 90.4489 25.504 90.8115 25.504C91.2762 25.504 91.6842 25.4077 92.0355 25.215C92.3982 25.011 92.6759 24.7333 92.8685 24.382C93.0725 24.0307 93.1745 23.6453 93.1745 23.226V20.846C93.1745 20.4493 93.0159 20.1207 92.6985 19.86C92.3925 19.588 91.9845 19.452 91.4745 19.452C90.9985 19.452 90.5735 19.5823 90.1995 19.843C89.8369 20.0923 89.5705 20.4267 89.4005 20.846L87.5815 19.962C87.7629 19.4747 88.0462 19.0553 88.4315 18.704C88.8282 18.3413 89.2929 18.058 89.8255 17.854C90.3582 17.65 90.9362 17.548 91.5595 17.548C92.3189 17.548 92.9875 17.6897 93.5655 17.973C94.1435 18.245 94.5912 18.6303 94.9085 19.129C95.2372 19.6163 95.4015 20.1887 95.4015 20.846V27H93.2935V25.419L93.7695 25.385C93.5315 25.7817 93.2482 26.116 92.9195 26.388C92.5909 26.6487 92.2169 26.8527 91.7975 27C91.3782 27.136 90.9135 27.204 90.4035 27.204ZM48.224 44V31.335H52.355C53.6923 31.335 54.854 31.607 55.84 32.151C56.8373 32.6837 57.608 33.426 58.152 34.378C58.696 35.3187 58.968 36.4123 58.968 37.659C58.968 38.8943 58.696 39.9937 58.152 40.957C57.608 41.909 56.8373 42.657 55.84 43.201C54.854 43.7337 53.6923 44 52.355 44H48.224ZM50.536 41.96H52.406C53.2673 41.96 54.0097 41.7843 54.633 41.433C55.2677 41.0703 55.7607 40.5717 56.112 39.937C56.4633 39.291 56.639 38.5317 56.639 37.659C56.639 36.775 56.4633 36.0157 56.112 35.381C55.7607 34.7463 55.2677 34.2533 54.633 33.902C54.0097 33.5507 53.2673 33.375 52.406 33.375H50.536V41.96ZM60.621 47.4V34.752H62.712V36.588L62.508 36.129C62.8253 35.6303 63.256 35.245 63.8 34.973C64.344 34.6897 64.973 34.548 65.687 34.548C66.5597 34.548 67.3473 34.7633 68.05 35.194C68.7527 35.6247 69.308 36.2027 69.716 36.928C70.1353 37.6533 70.345 38.4693 70.345 39.376C70.345 40.2713 70.141 41.0873 69.733 41.824C69.325 42.5607 68.7697 43.1443 68.067 43.575C67.3643 43.9943 66.5653 44.204 65.67 44.204C65.0013 44.204 64.3837 44.0737 63.817 43.813C63.2617 43.541 62.8197 43.1557 62.491 42.657L62.848 42.215V47.4H60.621ZM65.415 42.164C65.925 42.164 66.3783 42.045 66.775 41.807C67.1717 41.569 67.4777 41.2403 67.693 40.821C67.9197 40.4017 68.033 39.92 68.033 39.376C68.033 38.832 67.9197 38.356 67.693 37.948C67.4777 37.5287 67.1717 37.2 66.775 36.962C66.3783 36.7127 65.925 36.588 65.415 36.588C64.9277 36.588 64.4857 36.707 64.089 36.945C63.7037 37.183 63.3977 37.5173 63.171 37.948C62.9557 38.3673 62.848 38.8433 62.848 39.376C62.848 39.92 62.9557 40.4017 63.171 40.821C63.3977 41.2403 63.7037 41.569 64.089 41.807C64.4857 42.045 64.9277 42.164 65.415 42.164Z" fill="white"/>
<path d="M32.5461 9.05142L26.0901 0L2.3517 18.9639L1.03572 18.9497V18.97H0V43.34H42.6475V18.97H40.6938L36.8068 7.59938L32.5461 9.05142ZM36.4027 18.97H16.0375L31.2058 13.7995L34.2967 12.8105L36.4027 18.97ZM28.5332 10.4202L12.8755 15.7572L25.2757 5.85083L28.5332 10.4202ZM4.06167 35.5599V26.7461C4.91846 26.4425 5.6967 25.9514 6.33964 25.3089C6.98258 24.6663 7.474 23.8883 7.77809 23.0317H34.8694C35.1734 23.8886 35.6647 24.6669 36.3076 25.3099C36.9506 25.9528 37.7289 26.4441 38.5858 26.7481V35.5619C37.7289 35.8659 36.9506 36.3572 36.3076 37.0002C35.6647 37.6431 35.1734 38.4214 34.8694 39.2783H7.78215C7.4779 38.4207 6.98599 37.6418 6.34233 36.9985C5.69867 36.3551 4.91949 35.8637 4.06167 35.5599Z" fill="white"/>
</svg>
